HIERARCHY
ROOT joint_0
{
	OFFSET 0.000000 0.000000 0.000000
	CHANNELS 6 Xposition Yposition Zposition Zrotation Yrotation Xrotation 
	JOINT joint_1
	{
		OFFSET 6.579712 -2.778931 100.531982
		CHANNELS 3 Zrotation Yrotation Xrotation
		JOINT joint_2
		{
			OFFSET -3.313232 -1.302856 91.974976
			CHANNELS 3 Zrotation Yrotation Xrotation
			JOINT joint_3
			{
				OFFSET -3.421509 -1.641846 91.864014
				CHANNELS 3 Zrotation Yrotation Xrotation
				JOINT joint_4
				{
					OFFSET 7.697388 -4.642578 123.278931
					CHANNELS 3 Zrotation Yrotation Xrotation
					JOINT joint_5
					{
						OFFSET 24.842529 -5.941528 79.695068
						CHANNELS 3 Zrotation Yrotation Xrotation
						End Site
						{
							OFFSET 0.000000 0.000000 0.000000
						}
					}
				}
				JOINT joint_6
				{
					OFFSET -0.159668 -29.112976 68.364014
					CHANNELS 3 Zrotation Yrotation Xrotation
					JOINT joint_7
					{
						OFFSET -18.356079 -115.987061 -20.069092
						CHANNELS 3 Zrotation Yrotation Xrotation
						JOINT joint_8
						{
							OFFSET 31.719482 -11.733276 -267.170898
							CHANNELS 3 Zrotation Yrotation Xrotation
							JOINT joint_9
							{
								OFFSET 29.329956 -5.879517 -234.654053
								CHANNELS 3 Zrotation Yrotation Xrotation
								End Site
								{
									OFFSET 0.000000 0.000000 0.000000
								}
							}
						}
					}
				}
				JOINT joint_10
				{
					OFFSET 8.802979 23.897949 69.798950
					CHANNELS 3 Zrotation Yrotation Xrotation
					JOINT joint_11
					{
						OFFSET 21.159058 115.524292 -19.981934
						CHANNELS 3 Zrotation Yrotation Xrotation
						JOINT joint_12
						{
							OFFSET 18.809204 5.403442 -268.593018
							CHANNELS 3 Zrotation Yrotation Xrotation
							JOINT joint_13
							{
								OFFSET 20.807861 0.421265 -235.639038
								CHANNELS 3 Zrotation Yrotation Xrotation
								End Site
								{
									OFFSET 0.000000 0.000000 0.000000
								}
							}
						}
					}
				}
			}
		}
	}
	JOINT joint_14
	{
		OFFSET -9.713379 -79.513916 -99.348022
		CHANNELS 3 Zrotation Yrotation Xrotation
		JOINT joint_15
		{
			OFFSET -40.607788 -6.518372 -502.938019
			CHANNELS 3 Zrotation Yrotation Xrotation
			JOINT joint_16
			{
				OFFSET -19.807617 -7.437378 -399.590012
				CHANNELS 3 Zrotation Yrotation Xrotation
				JOINT joint_17
				{
					OFFSET 171.701660 -44.751282 -77.782000
					CHANNELS 3 Zrotation Yrotation Xrotation
					End Site
					{
						OFFSET 0.000000 0.000000 0.000000
					}
				}
			}
		}
	}
	JOINT joint_18
	{
		OFFSET 17.854858 79.618652 -98.128052
		CHANNELS 3 Zrotation Yrotation Xrotation
		JOINT joint_19
		{
			OFFSET -24.848877 16.861816 -503.722992
			CHANNELS 3 Zrotation Yrotation Xrotation
			JOINT joint_20
			{
				OFFSET -30.162476 14.470093 -398.750008
				CHANNELS 3 Zrotation Yrotation Xrotation
				JOINT joint_21
				{
					OFFSET 176.096680 -10.987549 -80.021000
					CHANNELS 3 Zrotation Yrotation Xrotation
					End Site
					{
						OFFSET 0.000000 0.000000 0.000000
					}
				}
			}
		}
	}
}
MOTION
Frames: 13
Frame Time: 0.016667
-1104.063110 943.703735 1099.237061 4.114393 -0.009504 0.253214 -1.942481 -1.302448 -1.290323 -1.867047 0.270801 0.120099 -1.887000 -0.241244 -0.170539 0.111105 1.169548 -0.076383 0.000000 0.000000 0.000000 1.407051 1.902472 0.067067 -0.109258 2.184205 -0.050829 -0.262416 -0.093771 -2.121870 0.000000 0.000000 0.000000 -1.483860 0.865522 0.370309 0.078456 1.284831 -0.442165 0.228342 -1.654224 2.542089 0.000000 0.000000 0.000000 0.737792 -0.186408 -2.324563 0.390832 1.146371 1.847952 0.594276 -2.980788 -0.507665 0.000000 0.000000 0.000000 2.086558 -0.095494 1.167771 2.216537 0.719185 -0.854293 2.062371 0.223932 0.950619 0.000000 0.000000 0.000000 
-1104.192627 943.713684 1099.199951 4.114444 -0.031141 0.245219 -1.937401 -1.309635 -1.288070 -1.861833 0.271611 0.120384 -1.881854 -0.241992 -0.171479 0.108942 1.173181 -0.068609 0.000000 0.000000 0.000000 1.393121 1.904039 0.077975 -0.113249 2.190512 -0.080819 -0.262375 -0.096834 -2.122157 0.000000 0.000000 0.000000 -1.492810 0.861325 0.354509 0.080926 1.271800 -0.398997 0.226619 -1.661945 2.523626 0.000000 0.000000 0.000000 0.735851 -0.173753 -2.322320 0.388489 1.151087 1.856206 0.592088 -2.966101 -0.504836 0.000000 0.000000 0.000000 2.085012 -0.091149 1.179132 2.216661 0.749202 -0.858310 2.060285 0.192366 0.947701 0.000000 0.000000 0.000000 
-1104.326294 943.736267 1099.155029 4.111605 -0.056068 0.239519 -1.931973 -1.313749 -1.288892 -1.856180 0.270425 0.121999 -1.876245 -0.241244 -0.172049 0.107819 1.175556 -0.064475 0.000000 0.000000 0.000000 1.377680 1.903268 0.091869 -0.118259 2.196212 -0.119319 -0.261723 -0.102673 -2.118131 0.000000 0.000000 0.000000 -1.498994 0.855446 0.334686 0.083323 1.256277 -0.358112 0.225957 -1.664128 2.516671 0.000000 0.000000 0.000000 0.735234 -0.156842 -2.323180 0.387312 1.154172 1.864395 0.591093 -2.954365 -0.502236 0.000000 0.000000 0.000000 2.083700 -0.078604 1.186909 2.216182 0.770240 -0.861053 2.058005 0.161081 0.944714 0.000000 0.000000 0.000000 
-1104.458740 943.766052 1099.104004 4.106247 -0.083406 0.235383 -1.925941 -1.318241 -1.290963 -1.849875 0.269832 0.123106 -1.870007 -0.240501 -0.173541 0.106530 1.176460 -0.060167 0.000000 0.000000 0.000000 1.360871 1.902033 0.107466 -0.123601 2.201943 -0.160384 -0.260796 -0.110071 -2.112256 0.000000 0.000000 0.000000 -1.504864 0.848912 0.314702 0.085676 1.240242 -0.318508 0.225786 -1.663345 2.515029 0.000000 0.000000 0.000000 0.735581 -0.136710 -2.326179 0.386980 1.156160 1.872725 0.590973 -2.944784 -0.499800 0.000000 0.000000 0.000000 2.083699 -0.060835 1.192206 2.216525 0.787218 -0.863009 2.056676 0.128781 0.942096 0.000000 0.000000 0.000000 
-1104.584961 943.795410 1099.053955 4.099823 -0.114249 0.232855 -1.921062 -1.321735 -1.295008 -1.844631 0.269359 0.125103 -1.864844 -0.238794 -0.174888 0.106520 1.177066 -0.060035 0.000000 0.000000 0.000000 1.347680 1.901064 0.122736 -0.128863 2.208273 -0.200027 -0.260173 -0.119680 -2.109264 0.000000 0.000000 0.000000 -1.510097 0.843099 0.293850 0.088117 1.224376 -0.277278 0.225672 -1.660057 2.513913 0.000000 0.000000 0.000000 0.735793 -0.112126 -2.332070 0.386231 1.157617 1.882542 0.590510 -2.935084 -0.497489 0.000000 0.000000 0.000000 2.087971 -0.041963 1.194979 2.221237 0.811894 -0.865138 2.059268 0.094987 0.941168 0.000000 0.000000 0.000000 
-1104.706787 943.830200 1098.996948 4.091149 -0.149349 0.231391 -1.917706 -1.322317 -1.297437 -1.841034 0.268663 0.126930 -1.861356 -0.238160 -0.176742 0.108235 1.174270 -0.066251 0.000000 0.000000 0.000000 1.341655 1.899343 0.134618 -0.133459 2.213739 -0.235243 -0.260323 -0.121758 -2.110947 0.000000 0.000000 0.000000 -1.514376 0.838094 0.273713 0.090551 1.209067 -0.234863 0.225454 -1.652484 2.511533 0.000000 0.000000 0.000000 0.736636 -0.079893 -2.338797 0.385965 1.153994 1.895290 0.590862 -2.934801 -0.497263 0.000000 0.000000 0.000000 2.098626 -0.019528 1.196272 2.232472 0.842443 -0.870103 2.067349 0.047057 0.941855 0.000000 0.000000 0.000000 
-1104.822388 943.863525 1098.939941 4.081449 -0.188027 0.231625 -1.914730 -1.322349 -1.302581 -1.837622 0.269920 0.130816 -1.858227 -0.238661 -0.179711 0.110687 1.171682 -0.074785 0.000000 0.000000 0.000000 1.336815 1.898663 0.146423 -0.137914 2.220096 -0.268449 -0.260748 -0.126049 -2.115304 0.000000 0.000000 0.000000 -1.520803 0.834016 0.253570 0.093083 1.194806 -0.190991 0.225264 -1.642901 2.509352 0.000000 0.000000 0.000000 0.737434 -0.042998 -2.348394 0.385382 1.149629 1.909555 0.590958 -2.934159 -0.497060 0.000000 0.000000 0.000000 2.113485 0.004086 1.194850 2.247968 0.880758 -0.874686 2.079283 -0.002681 0.944182 0.000000 0.000000 0.000000 
-1104.920044 943.877441 1098.905029 4.070393 -0.230252 0.234157 -1.911051 -1.320246 -1.314496 -1.833330 0.268706 0.134454 -1.854044 -0.236006 -0.180944 0.111503 1.170666 -0.077695 0.000000 0.000000 0.000000 1.327604 1.904713 0.162633 -0.143226 2.233293 -0.301759 -0.260139 -0.161988 -2.117866 0.000000 0.000000 0.000000 -1.524003 0.832476 0.234074 0.095732 1.182694 -0.147276 0.224979 -1.638584 2.506234 0.000000 0.000000 0.000000 0.736202 -0.008869 -2.366620 0.382103 1.157977 1.921464 0.587572 -2.902099 -0.490252 0.000000 0.000000 0.000000 2.130936 0.018618 1.188299 2.266633 0.946428 -0.871729 2.094917 -0.021695 0.950101 0.000000 0.000000 0.000000 
-1104.978882 943.850830 1098.910034 4.057826 -0.276034 0.241441 -1.905500 -1.317272 -1.339443 -1.826788 0.262416 0.137356 -1.847294 -0.227796 -0.179464 0.109269 1.174467 -0.069672 0.000000 0.000000 0.000000 1.307994 1.920269 0.189035 -0.149942 2.256395 -0.337206 -0.258264 -0.239180 -2.118756 0.000000 0.000000 0.000000 -1.523925 0.835196 0.215702 0.098683 1.174279 -0.102151 0.224517 -1.642484 2.501342 0.000000 0.000000 0.000000 0.730699 0.019719 -2.401515 0.373351 1.184220 1.928914 0.576975 -2.806614 -0.470190 0.000000 0.000000 0.000000 2.152422 0.017321 1.173831 2.290325 1.053065 -0.858808 2.116939 0.026514 0.963107 0.000000 0.000000 0.000000 
-1105.019775 943.804871 1098.937012 4.044241 -0.325466 0.250942 -1.899762 -1.312024 -1.371467 -1.819825 0.253961 0.141294 -1.840061 -0.216999 -0.177476 0.105654 1.180251 -0.056745 0.000000 0.000000 0.000000 1.285019 1.942416 0.219717 -0.157464 2.286301 -0.372494 -0.255314 -0.347189 -2.117385 0.000000 0.000000 0.000000 -1.519636 0.840888 0.198086 0.101794 1.168248 -0.056890 0.223961 -1.652347 2.495509 0.000000 0.000000 0.000000 0.723075 0.045580 -2.445030 0.361785 1.223318 1.934313 0.562794 -2.679303 -0.443461 0.000000 0.000000 0.000000 2.176671 0.007077 1.154109 2.317308 1.186825 -0.837701 2.142922 0.105800 0.979844 0.000000 0.000000 0.000000 
-1105.095093 943.783691 1098.946045 4.031616 -0.380701 0.255567 -1.893001 -1.296281 -1.394893 -1.812316 0.247458 0.144766 -1.832370 -0.208734 -0.176247 0.102334 1.184178 -0.045201 0.000000 0.000000 0.000000 1.261421 1.970964 0.241254 -0.164891 2.319970 -0.401058 -0.250881 -0.488261 -2.110864 0.000000 0.000000 0.000000 -1.519692 0.845046 0.184634 0.104399 1.163850 -0.021121 0.223311 -1.669573 2.488637 0.000000 0.000000 0.000000 0.718097 0.072777 -2.478337 0.353450 1.272498 1.940568 0.553102 -2.585331 -0.423385 0.000000 0.000000 0.000000 2.197202 0.000364 1.135470 2.340279 1.326220 -0.808020 2.164095 0.135964 0.991318 0.000000 0.000000 0.000000 
-1105.240845 943.806213 1098.916992 4.022418 -0.443532 0.250934 -1.885882 -1.262950 -1.401931 -1.805322 0.243555 0.147894 -1.825310 -0.202256 -0.176477 0.099964 1.179565 -0.038739 0.000000 0.000000 0.000000 1.240392 2.005153 0.246376 -0.172004 2.355635 -0.420562 -0.244164 -0.672542 -2.094849 0.000000 0.000000 0.000000 -1.526401 0.844257 0.177305 0.106110 1.159603 -0.001633 0.222746 -1.698179 2.482610 0.000000 0.000000 0.000000 0.716993 0.100560 -2.492508 0.349935 1.336876 1.950642 0.550718 -2.555985 -0.416838 0.000000 0.000000 0.000000 2.210744 0.000251 1.121545 2.355865 1.467619 -0.768275 2.176138 0.074168 0.992888 0.000000 0.000000 0.000000 
-1105.421143 943.854614 1098.869995 4.013856 -0.512117 0.241175 -1.878202 -1.219138 -1.399094 -1.798325 0.242475 0.149614 -1.818347 -0.199971 -0.177559 0.098150 1.173875 -0.034306 0.000000 0.000000 0.000000 1.219563 2.045701 0.242694 -0.179050 2.395310 -0.433881 -0.235872 -0.889193 -2.072922 0.000000 0.000000 0.000000 -1.534798 0.842480 0.174034 0.107311 1.157069 0.008275 0.222141 -1.733692 2.476120 0.000000 0.000000 0.000000 0.718526 0.129444 -2.496320 0.349632 1.411670 1.961688 0.552835 -2.560138 -0.416982 0.000000 0.000000 0.000000 2.220489 0.003825 1.108756 2.367337 1.614343 -0.719747 2.183319 -0.037319 0.989136 0.000000 0.000000 0.000000 
